<?xml version="1.0" standalone="no"?>
<!DOCTYPE svg PUBLIC "-//W3C//DTD SVG 20010904//EN"
 "http://www.w3.org/TR/2001/REC-SVG-20010904/DTD/svg10.dtd">
<svg version="1.0" xmlns="http://www.w3.org/2000/svg"
 width="117.000000pt" height="126.000000pt" viewBox="0 0 117.000000 126.000000"
 preserveAspectRatio="xMidYMid meet">

<g transform="translate(0.000000,126.000000) scale(0.100000,-0.100000)"
fill="#000000" stroke="none">
<path d="M742 1031 c-11 -7 -10 -9 3 -14 9 -4 13 -3 10 3 -3 6 -1 10 4 10 6 0
11 -7 11 -15 0 -8 5 -15 10 -15 14 0 13 13 -2 28 -14 14 -19 15 -36 3z"/>
<path d="M454 915 c-7 -19 -14 -49 -13 -67 l0 -33 17 25 c9 13 31 40 47 60
l30 35 -27 -18 c-27 -17 -28 -17 -29 0 -1 10 -1 21 0 26 3 19 -12 3 -25 -28z"/>
<path d="M317 737 c8 -78 72 -165 149 -202 23 -11 66 -19 109 -21 38 -1 55 0
37 2 -18 3 -30 10 -27 15 4 5 0 9 -8 9 -7 0 -24 12 -38 26 -13 14 -39 35 -57
46 -19 11 -44 30 -56 42 -24 22 -74 62 -93 74 -6 4 -13 16 -16 27 -2 11 -3 3
0 -18z"/>
<path d="M446 720 c12 -17 12 -30 1 -47 -10 -16 4 -23 60 -29 30 -3 65 1 93
11 38 13 40 15 11 10 -46 -7 -103 10 -143 43 -18 15 -28 20 -22 12z"/>
<path d="M250 401 c0 -17 4 -32 8 -35 4 -2 6 11 4 30 -5 42 -12 45 -12 5z"/>
<path d="M452 410 c0 -14 2 -19 5 -12 2 6 2 18 0 25 -3 6 -5 1 -5 -13z"/>
<path d="M642 400 c0 -19 2 -27 5 -17 2 9 2 25 0 35 -3 9 -5 1 -5 -18z"/>
<path d="M511 384 c0 -11 3 -14 6 -6 3 7 2 16 -1 19 -3 4 -6 -2 -5 -13z"/>
<path d="M678 393 c7 -3 16 -2 19 1 4 3 -2 6 -13 5 -11 0 -14 -3 -6 -6z"/>
<path d="M851 384 c0 -11 3 -14 6 -6 3 7 2 16 -1 19 -3 4 -6 -2 -5 -13z"/>
</g>
</svg>
